<?xml version="1.0" encoding="utf-8"?>
<!-- Generator: Adobe Illustrator 28.3.0, SVG Export Plug-In . SVG Version: 6.00 Build 0)  -->
<svg version="1.1" id="OBJECTS" xmlns="http://www.w3.org/2000/svg" xmlns:xlink="http://www.w3.org/1999/xlink" x="0px" y="0px"
	 viewBox="0 0 60.7 63.1" style="enable-background:new 0 0 60.7 63.1;" xml:space="preserve">
<style type="text/css">
	.st0{fill:#32BA46;}
	.st1{fill:none;}
	.st2{fill:#FFFFFF;}
</style>
<g>
	<g>
		<g>
			<path class="st0" d="M28.5,54.3c-3.8,0-7.6-1-11-3l-8.5,3l1.8-9.1C8,41.5,6.5,37,6.5,32.3c0-12.1,9.9-22,22-22
				c12.1,0,22,9.9,22,22S40.6,54.3,28.5,54.3z"/>
		</g>
	</g>
	<g>
		<g>
			<path class="st1" d="M28.7,18.5c-7.3,0-13.3,5.9-13.3,13.3c0,3.1,1.1,5.9,2.8,8.2l-0.9,4.6l4.3-1.5c2,1.3,4.4,2,7,2
				c7.3,0,13.3-5.9,13.3-13.3S36.1,18.5,28.7,18.5z"/>
			<path class="st2" d="M28.7,46.1c-2.5,0-5-0.7-7.1-1.9L16,46.1l1.1-5.9c-1.8-2.5-2.8-5.4-2.8-8.4c0-7.9,6.4-14.3,14.3-14.3
				s14.3,6.4,14.3,14.3S36.6,46.1,28.7,46.1z M21.8,41.9l0.4,0.3c2,1.2,4.2,1.9,6.5,1.9c6.7,0,12.2-5.5,12.2-12.2
				s-5.5-12.2-12.2-12.2s-12.2,5.5-12.2,12.2c0,2.7,0.9,5.3,2.6,7.5l0.3,0.4l-0.6,3.2L21.8,41.9z"/>
		</g>
		<path class="st2" d="M21.5,26.3c0,0,0.8-1.5,1.5-1.5s1.6-0.1,1.8,0.4c0.2,0.5,1.3,3,1.3,3s0.2,0.5-0.1,0.9
			c-0.3,0.4-0.9,1.1-0.9,1.1s-0.4,0.5,0,0.9c0.4,0.5,0.9,1.3,2,2.5c1.1,1.1,3.3,1.9,3.3,1.9s0.3,0,0.5-0.2c0.2-0.2,1.3-1.5,1.3-1.5
			s0.3-0.4,0.9-0.2s3,1.5,3,1.5s0.3,0.1,0.3,0.5c0,0.4-0.2,1.5-0.5,1.9s-1.4,1.5-3,1.5c-1.6,0-5.3-1.3-7.3-3.3c-2-2-3.8-4-4.2-5.9
			C20.9,27.9,21,27,21.5,26.3z"/>
	</g>
</g>
</svg>
